<mxfile host="Electron" modified="2023-08-26T15:08:37.207Z" agent="Mozilla/5.0 (Windows NT 10.0; Win64; x64) AppleWebKit/537.36 (KHTML, like Gecko) draw.io/21.6.8 Chrome/114.0.5735.289 Electron/25.5.0 Safari/537.36" etag="Q4WPtGE9lV3pMSkdOiRm" version="21.6.8" type="device">
  <diagram name="Page-1" id="UOzf3RomENWOPlzfvtUk">
    <mxGraphModel dx="925" dy="600" grid="1" gridSize="10" guides="1" tooltips="1" connect="1" arrows="1" fold="1" page="1" pageScale="1" pageWidth="827" pageHeight="1169" math="0" shadow="0">
      <root>
        <mxCell id="0" />
        <mxCell id="1" parent="0" />
        <mxCell id="gH4YH2GOie4zVfFOEyVg-3" style="edgeStyle=orthogonalEdgeStyle;rounded=0;orthogonalLoop=1;jettySize=auto;html=1;exitX=1;exitY=0.5;exitDx=0;exitDy=0;" edge="1" parent="1" source="gH4YH2GOie4zVfFOEyVg-1" target="gH4YH2GOie4zVfFOEyVg-2">
          <mxGeometry relative="1" as="geometry" />
        </mxCell>
        <mxCell id="gH4YH2GOie4zVfFOEyVg-1" value="JzodSchema" style="text;html=1;strokeColor=none;fillColor=none;align=center;verticalAlign=middle;whiteSpace=wrap;rounded=0;" vertex="1" parent="1">
          <mxGeometry x="140" y="230" width="80" height="30" as="geometry" />
        </mxCell>
        <mxCell id="gH4YH2GOie4zVfFOEyVg-8" style="edgeStyle=orthogonalEdgeStyle;rounded=0;orthogonalLoop=1;jettySize=auto;html=1;exitX=1;exitY=0;exitDx=0;exitDy=0;entryX=0;entryY=0.5;entryDx=0;entryDy=0;" edge="1" parent="1" source="gH4YH2GOie4zVfFOEyVg-2" target="gH4YH2GOie4zVfFOEyVg-5">
          <mxGeometry relative="1" as="geometry" />
        </mxCell>
        <mxCell id="gH4YH2GOie4zVfFOEyVg-9" style="edgeStyle=orthogonalEdgeStyle;rounded=0;orthogonalLoop=1;jettySize=auto;html=1;exitX=1;exitY=0.5;exitDx=0;exitDy=0;entryX=0;entryY=0.5;entryDx=0;entryDy=0;" edge="1" parent="1" source="gH4YH2GOie4zVfFOEyVg-2" target="gH4YH2GOie4zVfFOEyVg-6">
          <mxGeometry relative="1" as="geometry" />
        </mxCell>
        <mxCell id="gH4YH2GOie4zVfFOEyVg-10" style="edgeStyle=orthogonalEdgeStyle;rounded=0;orthogonalLoop=1;jettySize=auto;html=1;exitX=1;exitY=1;exitDx=0;exitDy=0;entryX=0;entryY=0.5;entryDx=0;entryDy=0;" edge="1" parent="1" source="gH4YH2GOie4zVfFOEyVg-2" target="gH4YH2GOie4zVfFOEyVg-7">
          <mxGeometry relative="1" as="geometry" />
        </mxCell>
        <mxCell id="gH4YH2GOie4zVfFOEyVg-2" value="Zod Schema" style="text;html=1;strokeColor=none;fillColor=none;align=center;verticalAlign=middle;whiteSpace=wrap;rounded=0;" vertex="1" parent="1">
          <mxGeometry x="300" y="230" width="80" height="30" as="geometry" />
        </mxCell>
        <mxCell id="gH4YH2GOie4zVfFOEyVg-5" value="Json Schema" style="text;html=1;strokeColor=none;fillColor=none;align=center;verticalAlign=middle;whiteSpace=wrap;rounded=0;" vertex="1" parent="1">
          <mxGeometry x="460" y="190" width="90" height="30" as="geometry" />
        </mxCell>
        <mxCell id="gH4YH2GOie4zVfFOEyVg-6" value="Typescript Type" style="text;html=1;strokeColor=none;fillColor=none;align=center;verticalAlign=middle;whiteSpace=wrap;rounded=0;" vertex="1" parent="1">
          <mxGeometry x="460" y="230" width="90" height="30" as="geometry" />
        </mxCell>
        <mxCell id="gH4YH2GOie4zVfFOEyVg-7" value="form validator" style="text;html=1;strokeColor=none;fillColor=none;align=center;verticalAlign=middle;whiteSpace=wrap;rounded=0;" vertex="1" parent="1">
          <mxGeometry x="460" y="280" width="90" height="30" as="geometry" />
        </mxCell>
        <mxCell id="gH4YH2GOie4zVfFOEyVg-11" value="" style="endArrow=none;dashed=1;html=1;dashPattern=1 3;strokeWidth=2;rounded=0;entryX=0.5;entryY=1;entryDx=0;entryDy=0;exitX=0.5;exitY=1;exitDx=0;exitDy=0;strokeColor=none;" edge="1" parent="1" source="gH4YH2GOie4zVfFOEyVg-1" target="gH4YH2GOie4zVfFOEyVg-2">
          <mxGeometry width="50" height="50" relative="1" as="geometry">
            <mxPoint x="390" y="440" as="sourcePoint" />
            <mxPoint x="440" y="390" as="targetPoint" />
            <Array as="points">
              <mxPoint x="180" y="300" />
              <mxPoint x="340" y="300" />
            </Array>
          </mxGeometry>
        </mxCell>
        <mxCell id="gH4YH2GOie4zVfFOEyVg-12" value="" style="endArrow=classic;html=1;rounded=0;entryX=0.5;entryY=1;entryDx=0;entryDy=0;exitX=0.5;exitY=1;exitDx=0;exitDy=0;dashed=1;" edge="1" parent="1" source="gH4YH2GOie4zVfFOEyVg-2" target="gH4YH2GOie4zVfFOEyVg-1">
          <mxGeometry width="50" height="50" relative="1" as="geometry">
            <mxPoint x="390" y="440" as="sourcePoint" />
            <mxPoint x="440" y="390" as="targetPoint" />
            <Array as="points">
              <mxPoint x="340" y="300" />
              <mxPoint x="180" y="300" />
            </Array>
          </mxGeometry>
        </mxCell>
      </root>
    </mxGraphModel>
  </diagram>
</mxfile>
